<svg xmlns="http://www.w3.org/2000/svg" viewBox="0 0 64 64" fill="none">
  <!-- Background circle with gradient -->
  <defs>
    <linearGradient id="grad" x1="0%" y1="0%" x2="100%" y2="100%">
      <stop offset="0%" style="stop-color:#6366f1;stop-opacity:1" />
      <stop offset="100%" style="stop-color:#8b5cf6;stop-opacity:1" />
    </linearGradient>
  </defs>

  <!-- Background -->
  <rect width="64" height="64" rx="12" fill="url(#grad)"/>

  <!-- Wrench icon -->
  <path d="M42 24c0-3.31-2.69-6-6-6-2.76 0-5.08 1.87-5.79 4.42l-8.79 8.79c-.42-.14-.86-.21-1.32-.21-2.21 0-4 1.79-4 4s1.79 4 4 4 4-1.79 4-4c0-.46-.08-.9-.21-1.32l8.79-8.79c2.55-.71 4.42-3.03 4.42-5.79z" fill="white" stroke="white" stroke-width="1.5" stroke-linecap="round" stroke-linejoin="round"/>

  <!-- Additional gear element -->
  <circle cx="48" cy="48" r="8" fill="none" stroke="white" stroke-width="2"/>
  <circle cx="48" cy="48" r="3" fill="white"/>
  <line x1="48" y1="40" x2="48" y2="43" stroke="white" stroke-width="2"/>
  <line x1="48" y1="53" x2="48" y2="56" stroke="white" stroke-width="2"/>
  <line x1="56" y1="48" x2="53" y2="48" stroke="white" stroke-width="2"/>
  <line x1="43" y1="48" x2="40" y2="48" stroke="white" stroke-width="2"/>
</svg>
